<svg xmlns="http://www.w3.org/2000/svg" version="1.1" xmlns:xlink="http://www.w3.org/1999/xlink" xmlns:svgjs="http://svgjs.dev/svgjs" viewBox="0 0 800 800"><defs><linearGradient x1="50%" y1="0%" x2="50%" y2="100%" id="ffflurry-grad" gradientTransform="rotate(270)"><stop stop-color="#1a1a1a;" stop-opacity="1" offset="0%"></stop><stop stop-color="hsl(1.4, 100%, 67%)" stop-opacity="1" offset="45%"></stop><stop stop-color="hsl(167, 52%, 78%)" stop-opacity="1" offset="100%"></stop></linearGradient></defs><rect width="100%" height="100%" fill="#1a1a1a;"></rect><g fill="url(#ffflurry-grad)"><rect width="314" height="3" x="-123" y="93.5" rx="1.5" transform="rotate(45, 34, 95)" opacity="0.59"></rect><rect width="166" height="3" x="213" y="582.5" rx="1.5" transform="rotate(45, 296, 584)" opacity="0.79"></rect><rect width="294" height="3" x="14" y="515.5" rx="1.5" transform="rotate(45, 161, 517)" opacity="0.31"></rect><rect width="302" height="3" x="503" y="644.5" rx="1.5" transform="rotate(45, 654, 646)" opacity="0.32"></rect><rect width="358" height="3" x="-62" y="309.5" rx="1.5" transform="rotate(45, 117, 311)" opacity="0.94"></rect><rect width="94" height="3" x="195" y="294.5" rx="1.5" transform="rotate(45, 242, 296)" opacity="0.43"></rect><rect width="178" height="3" x="515" y="159.5" rx="1.5" transform="rotate(45, 604, 161)" opacity="0.39"></rect><rect width="328" height="3" x="582" y="211.5" rx="1.5" transform="rotate(45, 746, 213)" opacity="0.37"></rect><rect width="155" height="3" x="-48.5" y="473.5" rx="1.5" transform="rotate(45, 29, 475)" opacity="0.90"></rect><rect width="280" height="3" x="63" y="211.5" rx="1.5" transform="rotate(45, 203, 213)" opacity="0.80"></rect><rect width="402" height="3" x="322" y="570.5" rx="1.5" transform="rotate(45, 523, 572)" opacity="0.49"></rect><rect width="509" height="3" x="273.5" y="476.5" rx="1.5" transform="rotate(45, 528, 478)" opacity="0.40"></rect><rect width="254" height="3" x="-85" y="298.5" rx="1.5" transform="rotate(45, 42, 300)" opacity="0.75"></rect><rect width="526" height="3" x="-113" y="55.5" rx="1.5" transform="rotate(45, 150, 57)" opacity="0.54"></rect><rect width="225" height="3" x="662.5" y="628.5" rx="1.5" transform="rotate(45, 775, 630)" opacity="0.74"></rect><rect width="294" height="3" x="507" y="422.5" rx="1.5" transform="rotate(45, 654, 424)" opacity="0.89"></rect><rect width="151" height="3" x="-44.5" y="589.5" rx="1.5" transform="rotate(45, 31, 591)" opacity="0.21"></rect><rect width="580" height="3" x="-29" y="473.5" rx="1.5" transform="rotate(45, 261, 475)" opacity="0.43"></rect><rect width="394" height="3" x="286" y="643.5" rx="1.5" transform="rotate(45, 483, 645)" opacity="0.56"></rect><rect width="241" height="3" x="178.5" y="189.5" rx="1.5" transform="rotate(45, 299, 191)" opacity="0.80"></rect><rect width="193" height="3" x="-76.5" y="349.5" rx="1.5" transform="rotate(45, 20, 351)" opacity="0.57"></rect><rect width="293" height="3" x="25.5" y="256.5" rx="1.5" transform="rotate(45, 172, 258)" opacity="0.16"></rect><rect width="157" height="3" x="13.5" y="558.5" rx="1.5" transform="rotate(45, 92, 560)" opacity="0.50"></rect><rect width="131" height="3" x="150.5" y="139.5" rx="1.5" transform="rotate(45, 216, 141)" opacity="0.65"></rect><rect width="340" height="3" x="56" y="673.5" rx="1.5" transform="rotate(45, 226, 675)" opacity="0.49"></rect><rect width="418" height="3" x="252" y="120.5" rx="1.5" transform="rotate(45, 461, 122)" opacity="0.09"></rect><rect width="274" height="3" x="243" y="452.5" rx="1.5" transform="rotate(45, 380, 454)" opacity="0.21"></rect><rect width="233" height="3" x="601.5" y="769.5" rx="1.5" transform="rotate(45, 718, 771)" opacity="0.29"></rect><rect width="665" height="3" x="209.5" y="294.5" rx="1.5" transform="rotate(45, 542, 296)" opacity="0.74"></rect><rect width="80" height="3" x="716" y="456.5" rx="1.5" transform="rotate(45, 756, 458)" opacity="0.59"></rect><rect width="85" height="3" x="501.5" y="48.5" rx="1.5" transform="rotate(45, 544, 50)" opacity="0.79"></rect><rect width="349" height="3" x="0.5" y="432.5" rx="1.5" transform="rotate(45, 175, 434)" opacity="0.10"></rect><rect width="497" height="3" x="152.5" y="204.5" rx="1.5" transform="rotate(45, 401, 206)" opacity="0.97"></rect><rect width="287" height="3" x="-72.5" y="248.5" rx="1.5" transform="rotate(45, 71, 250)" opacity="0.09"></rect><rect width="91" height="3" x="80.5" y="244.5" rx="1.5" transform="rotate(45, 126, 246)" opacity="0.08"></rect><rect width="661" height="3" x="-209.5" y="652.5" rx="1.5" transform="rotate(45, 121, 654)" opacity="0.83"></rect><rect width="251" height="3" x="651.5" y="768.5" rx="1.5" transform="rotate(45, 777, 770)" opacity="0.71"></rect><rect width="429" height="3" x="472.5" y="550.5" rx="1.5" transform="rotate(45, 687, 552)" opacity="0.50"></rect><rect width="686" height="3" x="-302" y="720.5" rx="1.5" transform="rotate(45, 41, 722)" opacity="0.18"></rect><rect width="328" height="3" x="306" y="706.5" rx="1.5" transform="rotate(45, 470, 708)" opacity="0.28"></rect><rect width="387" height="3" x="221.5" y="35.5" rx="1.5" transform="rotate(45, 415, 37)" opacity="0.69"></rect><rect width="450" height="3" x="111" y="84.5" rx="1.5" transform="rotate(45, 336, 86)" opacity="0.30"></rect><rect width="358" height="3" x="132" y="708.5" rx="1.5" transform="rotate(45, 311, 710)" opacity="0.08"></rect><rect width="58" height="3" x="3" y="168.5" rx="1.5" transform="rotate(45, 32, 170)" opacity="0.91"></rect><rect width="365" height="3" x="57.5" y="763.5" rx="1.5" transform="rotate(45, 240, 765)" opacity="0.87"></rect><rect width="527" height="3" x="427.5" y="38.5" rx="1.5" transform="rotate(45, 691, 40)" opacity="0.38"></rect><rect width="206" height="3" x="-44" y="29.5" rx="1.5" transform="rotate(45, 59, 31)" opacity="0.09"></rect><rect width="670" height="3" x="313" y="290.5" rx="1.5" transform="rotate(45, 648, 292)" opacity="0.81"></rect><rect width="202" height="3" x="556" y="740.5" rx="1.5" transform="rotate(45, 657, 742)" opacity="0.47"></rect><rect width="402" height="3" x="556" y="708.5" rx="1.5" transform="rotate(45, 757, 710)" opacity="0.60"></rect><rect width="354" height="3" x="-155" y="235.5" rx="1.5" transform="rotate(45, 22, 237)" opacity="0.38"></rect><rect width="102" height="3" x="52" y="191.5" rx="1.5" transform="rotate(45, 103, 193)" opacity="0.44"></rect><rect width="410" height="3" x="527" y="112.5" rx="1.5" transform="rotate(45, 732, 114)" opacity="0.30"></rect><rect width="423" height="3" x="290.5" y="757.5" rx="1.5" transform="rotate(45, 502, 759)" opacity="0.74"></rect><rect width="482" height="3" x="145" y="666.5" rx="1.5" transform="rotate(45, 386, 668)" opacity="0.71"></rect><rect width="331" height="3" x="272.5" y="556.5" rx="1.5" transform="rotate(45, 438, 558)" opacity="0.48"></rect><rect width="539" height="3" x="309.5" y="755.5" rx="1.5" transform="rotate(45, 579, 757)" opacity="0.20"></rect><rect width="274" height="3" x="227" y="566.5" rx="1.5" transform="rotate(45, 364, 568)" opacity="0.21"></rect><rect width="255" height="3" x="155.5" y="382.5" rx="1.5" transform="rotate(45, 283, 384)" opacity="0.97"></rect><rect width="99" height="3" x="117.5" y="358.5" rx="1.5" transform="rotate(45, 167, 360)" opacity="0.10"></rect><rect width="755" height="3" x="45.5" y="330.5" rx="1.5" transform="rotate(45, 423, 332)" opacity="0.52"></rect><rect width="543" height="3" x="476.5" y="337.5" rx="1.5" transform="rotate(45, 748, 339)" opacity="0.69"></rect><rect width="201" height="3" x="404.5" y="206.5" rx="1.5" transform="rotate(45, 505, 208)" opacity="0.32"></rect><rect width="464" height="3" x="104" y="291.5" rx="1.5" transform="rotate(45, 336, 293)" opacity="0.40"></rect><rect width="54" height="3" x="584" y="531.5" rx="1.5" transform="rotate(45, 611, 533)" opacity="0.59"></rect><rect width="345" height="3" x="588.5" y="549.5" rx="1.5" transform="rotate(45, 761, 551)" opacity="0.71"></rect><rect width="225" height="3" x="466.5" y="653.5" rx="1.5" transform="rotate(45, 579, 655)" opacity="0.51"></rect><rect width="444" height="3" x="171" y="763.5" rx="1.5" transform="rotate(45, 393, 765)" opacity="0.33"></rect><rect width="274" height="3" x="43" y="600.5" rx="1.5" transform="rotate(45, 180, 602)" opacity="0.69"></rect><rect width="403" height="3" x="43.5" y="42.5" rx="1.5" transform="rotate(45, 245, 44)" opacity="0.68"></rect><rect width="164" height="3" x="49" y="751.5" rx="1.5" transform="rotate(45, 131, 753)" opacity="0.66"></rect><rect width="368" height="3" x="536" y="645.5" rx="1.5" transform="rotate(45, 720, 647)" opacity="0.90"></rect><rect width="322" height="3" x="352" y="394.5" rx="1.5" transform="rotate(45, 513, 396)" opacity="0.08"></rect><rect width="173" height="3" x="144.5" y="554.5" rx="1.5" transform="rotate(45, 231, 556)" opacity="0.41"></rect><rect width="422" height="3" x="-145" y="386.5" rx="1.5" transform="rotate(45, 66, 388)" opacity="0.61"></rect><rect width="194" height="3" x="13" y="129.5" rx="1.5" transform="rotate(45, 110, 131)" opacity="0.23"></rect><rect width="57" height="3" x="68.5" y="459.5" rx="1.5" transform="rotate(45, 97, 461)" opacity="0.95"></rect></g></svg>