<svg xmlns="http://www.w3.org/2000/svg" version="1.1" xmlns:xlink="http://www.w3.org/1999/xlink" xmlns:svgjs="http://svgjs.dev/svgjs" viewBox="0 0 2400 800"><defs><linearGradient x1="50%" y1="0%" x2="50%" y2="100%" id="sssurf-grad"><stop stop-color="hsl(185, 53%, 55%)" stop-opacity="1" offset="0%"></stop><stop stop-color="hsl(0, 73%, 55%)" stop-opacity="1" offset="100%"></stop></linearGradient></defs><g fill="url(#sssurf-grad)" transform="matrix(1,0,0,1,0,-115.06192016601562)"><path d="M 0 398.9685674761141 Q 320.6948825739512 450 600 348.5913171604258 Q 807.5199739818801 450 1200 308.7963158697987 Q 1533.9378635990772 450 1800 372.87486664097463 Q 2110.8566335659702 450 2400 308.1238379369985 L 2400 800 L 0 800 L 0 329.4530515111265 Z" transform="matrix(1,0,0,1,0,46)" opacity="0.05"></path><path d="M 0 398.9685674761141 Q 320.6948825739512 450 600 348.5913171604258 Q 807.5199739818801 450 1200 308.7963158697987 Q 1533.9378635990772 450 1800 372.87486664097463 Q 2110.8566335659702 450 2400 308.1238379369985 L 2400 800 L 0 800 L 0 329.4530515111265 Z" transform="matrix(1,0,0,1,0,92)" opacity="0.24"></path><path d="M 0 398.9685674761141 Q 320.6948825739512 450 600 348.5913171604258 Q 807.5199739818801 450 1200 308.7963158697987 Q 1533.9378635990772 450 1800 372.87486664097463 Q 2110.8566335659702 450 2400 308.1238379369985 L 2400 800 L 0 800 L 0 329.4530515111265 Z" transform="matrix(1,0,0,1,0,138)" opacity="0.43"></path><path d="M 0 398.9685674761141 Q 320.6948825739512 450 600 348.5913171604258 Q 807.5199739818801 450 1200 308.7963158697987 Q 1533.9378635990772 450 1800 372.87486664097463 Q 2110.8566335659702 450 2400 308.1238379369985 L 2400 800 L 0 800 L 0 329.4530515111265 Z" transform="matrix(1,0,0,1,0,184)" opacity="0.62"></path><path d="M 0 398.9685674761141 Q 320.6948825739512 450 600 348.5913171604258 Q 807.5199739818801 450 1200 308.7963158697987 Q 1533.9378635990772 450 1800 372.87486664097463 Q 2110.8566335659702 450 2400 308.1238379369985 L 2400 800 L 0 800 L 0 329.4530515111265 Z" transform="matrix(1,0,0,1,0,230)" opacity="0.81"></path><path d="M 0 398.9685674761141 Q 320.6948825739512 450 600 348.5913171604258 Q 807.5199739818801 450 1200 308.7963158697987 Q 1533.9378635990772 450 1800 372.87486664097463 Q 2110.8566335659702 450 2400 308.1238379369985 L 2400 800 L 0 800 L 0 329.4530515111265 Z" transform="matrix(1,0,0,1,0,276)" opacity="1.00"></path></g></svg>